<?xml version="1.0" encoding="UTF-8"?>
<svg viewBox="0 0 780 482" xmlns="http://www.w3.org/2000/svg" font-family="'Noto Sans JP', sans-serif">
<rect x="0" y="0" width="780" height="482" fill="#FFFFFF"/>
<text x="40" y="50" font-family="'Noto Serif JP', serif" font-size="27" font-weight="700" fill="#004455">早く申し込むほど、ずっとお得</text>
<text x="41" y="78" font-size="13.5" fill="#5E7378">お申し込み時の月額は当面そのまま。後から参加する方ほど、割引は小さくなります。</text>
<line x1="158" y1="130" x2="748" y2="130" stroke="#D9E6E8" stroke-width="1"/>
<text x="146" y="134" text-anchor="end" font-size="13" fill="#5E7378">¥9,000（定価）</text>
<line x1="158" y1="188" x2="748" y2="188" stroke="#D9E6E8" stroke-width="1"/>
<text x="146" y="192" text-anchor="end" font-size="13" fill="#5E7378">¥8,100</text>
<line x1="158" y1="246" x2="748" y2="246" stroke="#D9E6E8" stroke-width="1"/>
<text x="146" y="250" text-anchor="end" font-size="13" fill="#5E7378">¥7,200</text>
<line x1="158" y1="304" x2="748" y2="304" stroke="#D9E6E8" stroke-width="1"/>
<text x="146" y="308" text-anchor="end" font-size="13" fill="#5E7378">¥6,300</text>
<line x1="158" y1="362" x2="748" y2="362" stroke="#D9E6E8" stroke-width="1"/>
<text x="146" y="366" text-anchor="end" font-size="13" fill="#5E7378">¥5,400</text>
<text x="40" y="108" font-size="12" fill="#5E7378">月額（税抜）</text>
<line x1="158" y1="418" x2="748" y2="418" stroke="#AEC6CA" stroke-width="1.5"/>
<polygon points="748,413 760,418 748,423" fill="#AEC6CA"/>
<text x="453.0" y="440" text-anchor="middle" font-size="12.5" fill="#5E7378">加入が進むほど（時期・幅は運営側で調整）→</text>
<path d="M 158 362 L 278 362 L 278 304 L 398 304 L 398 246 L 518 246 L 518 188 L 638 188 L 638 130 L 748 130" fill="none" stroke="#1C6E7C" stroke-width="2.2" stroke-dasharray="7 5" opacity="0.55" stroke-linejoin="round"/>
<line x1="398" y1="304" x2="748" y2="304" stroke="#1C6E7C" stroke-width="1.4" stroke-dasharray="3 4" opacity="0.4"/>
<text x="404" y="297" font-size="11" fill="#5E7378" opacity="0.9">今後の新規（例）</text>
<line x1="518" y1="246" x2="748" y2="246" stroke="#1C6E7C" stroke-width="1.4" stroke-dasharray="3 4" opacity="0.4"/>
<text x="524" y="239" font-size="11" fill="#5E7378" opacity="0.9">今後の新規（例）</text>
<line x1="638" y1="188" x2="748" y2="188" stroke="#1C6E7C" stroke-width="1.4" stroke-dasharray="3 4" opacity="0.4"/>
<text x="644" y="181" font-size="11" fill="#5E7378" opacity="0.9">今後の新規（例）</text>
<line x1="748" y1="130" x2="748" y2="130" stroke="#1C6E7C" stroke-width="1.4" stroke-dasharray="3 4" opacity="0.4"/>
<line x1="158" y1="362" x2="748" y2="362" stroke="#004455" stroke-width="3.4"/>
<circle cx="216" cy="362" r="7.5" fill="#C0962F" stroke="#FFFFFF" stroke-width="2"/>
<rect x="202" y="376" width="186" height="40" rx="9" fill="#F5ECD3" stroke="#E0C77E" stroke-width="1.3"/>
<text x="212" y="393" font-size="12" font-weight="700" fill="#C0962F">いまここ：第2回コホート</text>
<text x="212" y="410" font-size="11.5" fill="#003A47">当面 ¥5,400／月 のまま</text>
<text x="744" y="352" text-anchor="end" font-size="12.5" font-weight="700" fill="#004455">お申し込み済みの方は据え置き</text>
<line x1="158" y1="462" x2="190" y2="462" stroke="#004455" stroke-width="3.4"/>
<text x="196" y="466" font-size="11.5" fill="#003A47">お申し込み済みの方の月額（据え置き）</text>
<line x1="448" y1="462" x2="480" y2="462" stroke="#1C6E7C" stroke-width="2.2" stroke-dasharray="7 5" opacity="0.6"/>
<text x="486" y="466" font-size="11.5" fill="#003A47">今後の新規申込の想定（運営判断）</text>
</svg>
