<svg viewBox="0 0 695 104" xmlns="http://www.w3.org/2000/svg" role="img" aria-label="AI戦略実践プロジェクト / AI Strategy in Action Project">
  <g transform="translate(6.0,15.7) scale(1.55)">
    <line x1="10" y1="34.04" x2="64.53" y2="4.0" stroke="#004455" stroke-width="2.4" stroke-linecap="round"/>
    <circle cx="10" cy="34.04" r="10" fill="#004455"/>
    <circle cx="64.53" cy="4.0" r="4.4" fill="#004455"/>
  </g>
  <g fill="#004455">
    <path transform="translate(134.00,55.66) scale(0.05928,-0.05928)" d="M330 631 444 277H218ZM414 0H725V32L641 40L404 740H330L97 42L13 32V0H238V32L143 43L207 244H455L520 42L414 32Z"/>
    <path transform="translate(177.57,55.66) scale(0.05928,-0.05928)" d="M48 704 147 695C149 595 149 495 149 393V342C149 241 149 140 147 41L48 32V0H368V32L270 41C268 141 268 242 268 343V393C268 494 268 596 270 695L368 704V735H48Z"/>
    <path transform="translate(205.93,52.00) scale(0.05200,-0.05200)" d="M67 818 56 812C84 769 114 703 118 649C191 584 274 735 67 818ZM228 841 216 836C238 791 261 723 260 668C331 598 423 744 228 841ZM447 837C423 757 390 670 363 615L376 606C428 647 484 710 528 773C549 771 562 779 567 790ZM763 796 753 789C789 757 826 701 833 654C912 594 985 754 763 796ZM171 566H260V449H171ZM34 155 42 126H260V-79H276C322 -79 350 -59 351 -53V126H574C588 126 598 131 601 142C565 176 503 224 503 224L449 155H351V271H444V233H458C488 233 530 254 531 262V555C548 558 561 565 566 572L477 640L435 595H183L84 635V216H98C143 216 171 235 171 242V271H260V155ZM171 421H260V299H171ZM444 566V449H351V566ZM444 421V299H351V421ZM835 487C818 425 793 360 760 296C743 365 732 441 727 521L941 553C954 555 964 562 965 573C923 600 858 636 858 636L814 563L725 549C720 631 720 715 721 799C747 803 756 815 758 828L625 842C625 735 627 632 635 536L544 522L556 495L637 507C647 390 665 283 698 188C638 99 564 16 474 -47L484 -60C579 -12 658 52 723 123C747 69 776 21 813 -22C848 -64 916 -107 957 -74C973 -61 968 -33 940 21L960 186L949 189C934 147 913 97 900 72C891 53 885 52 873 69C838 106 810 152 789 205C843 279 884 357 913 430C938 428 947 434 952 446Z"/>
    <path transform="translate(257.93,52.00) scale(0.05200,-0.05200)" d="M581 845C544 710 475 585 405 504V715C424 718 439 726 445 734L360 801L319 756H151L71 793V23H84C119 23 146 42 146 52V108H328V44H341C368 44 404 64 405 71V262C433 272 460 284 486 296V-84H500C544 -84 570 -67 570 -61V-9H783V-75H797C840 -75 870 -58 870 -53V241C891 244 901 251 908 259L821 325L779 276H582L507 306C576 341 637 383 688 430C746 370 820 321 916 285C923 329 946 356 984 368L986 379C887 402 805 436 738 480C792 541 835 608 867 680C891 681 901 684 909 693L823 770L770 720H630C642 740 653 761 663 783C684 781 697 789 702 801ZM570 20V247H783V20ZM328 727V453H270V727ZM203 727V453H146V727ZM146 424H203V137H146ZM328 424V137H270V424ZM405 282V489L410 485C465 519 517 565 563 622C586 570 613 522 646 479C582 401 500 334 405 282ZM771 692C749 633 719 577 681 523C640 558 607 598 580 643C591 658 603 675 614 692Z"/>
    <path transform="translate(309.93,52.00) scale(0.05200,-0.05200)" d="M451 644V531H156L164 502H451V412V390H162L170 361H450C447 319 441 278 429 239H57L65 211H419C373 95 268 -2 43 -69L48 -85C335 -29 462 78 514 211H538C600 45 718 -36 892 -86C903 -38 929 -6 969 5V16C795 38 637 90 560 211H915C930 211 940 216 943 227C904 261 842 307 842 307L788 239H523C536 278 542 319 545 361H831C845 361 855 366 858 377C820 410 760 454 760 454L707 390H547V410V502H834C848 502 858 507 861 518C824 551 764 594 764 594L712 531H547V604C572 608 579 618 582 631ZM164 779C169 718 130 664 91 643C63 629 43 603 54 571C67 538 112 532 143 552C176 572 202 618 199 686H825C815 654 800 614 788 588L799 581C841 602 898 639 930 669C951 670 961 672 969 679L876 769L822 715H548V806C574 810 583 820 584 834L449 845V715H196C192 735 187 757 178 780Z"/>
    <path transform="translate(361.93,52.00) scale(0.05200,-0.05200)" d="M691 815 683 807C716 784 756 741 770 706C851 664 905 815 691 815ZM21 41 62 -68C74 -65 83 -55 87 -43C260 24 385 80 471 119L468 134L290 95V320H411C425 320 434 325 437 336C410 368 361 414 361 414L318 349H290V509H308V480H321C348 480 390 497 391 504V619L401 594L544 606C546 566 549 528 553 490L403 476L413 448L556 462C562 416 569 373 579 331L379 310L390 282L586 303C602 239 624 181 653 129C556 50 432 -17 293 -59L299 -74C450 -47 583 6 689 73C723 27 764 -12 814 -44C865 -78 936 -106 966 -65C977 -50 974 -28 940 16L958 174L947 176C931 133 907 80 893 55C884 37 877 36 859 48C823 69 792 96 767 127C816 167 857 209 889 252C913 247 922 251 929 261L822 321C797 277 764 234 723 193C704 229 689 269 676 312L943 340C957 341 967 348 968 359C928 388 861 428 861 428L813 356L669 341C659 381 652 425 646 470L917 496C930 497 941 503 942 514C904 542 842 580 842 580L797 513L643 499C640 536 637 575 636 614L919 639C932 640 942 647 943 658C905 687 841 727 841 727L794 657L635 643C633 692 633 742 634 793C659 797 668 809 669 822L538 836C538 767 539 699 542 635L391 622V731C410 734 424 743 431 750L340 818L298 773H179L85 811V460H98C140 460 166 479 166 485V509H210V78L156 66V375C174 377 181 385 182 395L82 405V52ZM166 744H308V538H166Z"/>
    <path transform="translate(413.71,52.00) scale(0.05200,-0.05200)" d="M165 -28 178 -49C490 59 672 247 785 493C800 526 834 536 834 565C834 597 742 675 703 675C680 675 676 659 642 652C591 641 310 611 240 611C204 611 180 638 158 665L141 658C142 631 143 614 149 594C159 562 210 504 249 504C270 504 294 523 319 529C376 543 623 587 680 587C689 587 694 584 691 573C637 347 444 115 165 -28ZM884 621C944 621 992 669 992 730C992 790 944 838 884 838C824 838 775 790 775 730C775 669 824 621 884 621ZM884 659C845 659 813 690 813 730C813 769 845 800 884 800C923 800 955 769 955 730C955 690 923 659 884 659Z"/>
    <path transform="translate(465.55,52.00) scale(0.05200,-0.05200)" d="M284 44C314 44 324 64 324 92V121C437 128 562 135 639 135C691 135 744 128 773 128C800 128 812 144 812 166C812 191 782 209 748 214C768 309 789 417 801 468C808 500 844 510 844 537C844 571 754 643 722 643C698 643 691 614 651 609C610 604 402 583 303 577C303 580 301 582 298 584C253 623 208 630 155 633L145 618C180 587 196 567 204 531C219 465 233 299 233 235C234 196 230 148 230 124C230 81 256 44 284 44ZM311 531C328 522 344 515 357 515C376 515 407 525 439 529C493 536 629 547 686 547C696 547 700 542 700 533C700 483 679 325 659 212C564 207 419 195 321 187Z"/>
    <path transform="translate(510.74,52.00) scale(0.05200,-0.05200)" d="M797 575C816 575 830 588 830 607C830 627 821 644 798 666C771 693 726 714 672 734L660 719C704 680 731 643 751 616C769 591 781 575 797 575ZM304 -26C334 -26 346 3 373 20C593 145 813 338 918 540L899 553C724 328 353 87 258 87C221 87 189 124 165 150L151 143C152 121 159 79 174 57C200 18 265 -26 304 -26ZM346 324C378 324 390 349 390 369C390 421 334 459 267 479C217 495 178 501 133 509L125 489C161 470 197 443 239 406C288 365 306 324 346 324ZM473 528C496 528 514 550 514 573C514 624 467 657 398 683C345 698 299 706 264 712L255 692C286 674 325 646 361 613C414 567 433 528 473 528ZM901 657C919 657 931 669 931 688C931 711 919 730 895 750C868 771 826 792 771 808L760 793C807 753 831 725 851 700C872 675 883 657 901 657Z"/>
    <path transform="translate(558.22,52.00) scale(0.05200,-0.05200)" d="M343 349C366 349 398 357 449 365C460 346 466 323 466 290C466 250 464 187 461 138C371 129 285 121 252 121C222 121 200 135 179 156L168 152C169 128 171 114 177 101C186 78 230 34 259 34C281 34 306 48 343 58C409 75 529 89 606 87C708 86 781 61 810 61C831 61 845 76 845 96C845 127 771 169 732 169C720 169 710 159 667 155C633 153 586 149 536 145C540 194 546 244 551 275C555 295 566 312 566 327C566 345 545 361 517 374C602 383 672 387 701 389C727 390 738 408 738 425C738 449 675 476 635 476C617 476 616 454 515 437C455 427 390 420 350 420C319 420 293 434 267 454L257 448C263 429 273 408 285 390C300 369 323 349 343 349Z"/>
    <path transform="translate(603.46,52.00) scale(0.05200,-0.05200)" d="M125 323 139 304C263 363 372 458 456 564C473 550 489 540 501 540C518 540 536 547 557 553C588 562 673 578 695 578C705 578 710 573 705 560C624 356 390 101 135 -34L148 -55C456 61 661 265 804 517C820 545 856 554 856 579C856 613 771 662 744 662C724 662 711 640 685 633C658 625 539 610 498 610H490C503 628 515 647 526 665C542 691 555 698 555 717C555 740 489 777 434 782C406 785 387 783 368 780L364 764C398 748 423 728 423 709C423 648 284 447 125 323Z"/>
    <path transform="translate(639.96,52.00) scale(0.05200,-0.05200)" d="M744 250C774 250 791 273 791 300C791 343 764 371 725 394C669 428 576 458 476 473C478 531 480 593 485 635C490 670 510 678 510 703C510 732 430 776 383 776C359 776 331 765 304 755L305 737C351 730 378 721 383 688C390 641 392 523 392 441C392 374 391 227 383 153C379 111 370 90 370 66C370 9 394 -46 437 -46C469 -46 480 -29 480 12C480 27 478 59 477 108C475 203 474 348 476 436C536 410 580 384 616 356C686 296 694 250 744 250Z"/>
  </g>
  <rect x="134.77" y="66.0" width="546.32" height="1.4" fill="#004455" opacity="0.40"/>
  <g fill="#2F7B88">
    <path transform="translate(134.32,88.0) scale(0.00879,-0.00879)" d="M50.9200439453125 0 581.48046875 1490H861.238037109375L1400.7783813476562 0H1154.3402709960938L864.0792236328125 828.9222412109375Q830.2194213867188 930.00146484375 789.8294982910156 1066.90087890625Q749.4395751953125 1203.80029296875 696.4194946289062 1395.6002197265625H742.4990844726562Q690.6589965820312 1202.1602783203125 650.5290222167969 1063.620849609375Q610.3990478515625 925.0814208984375 579.3592529296875 828.9222412109375L297.918212890625 0ZM338.3994140625 392.6009521484375V583.0799560546875H1113.2990112304688V392.6009521484375Z"/>
    <path transform="translate(157.26,88.0) scale(0.00879,-0.00879)" d="M393.3990478515625 1490V0H164.880615234375V1490Z"/>
    <path transform="translate(174.88,88.0) scale(0.00879,-0.00879)" d=""/>
    <path transform="translate(192.40,88.0) scale(0.00879,-0.00879)" d="M665.0996704101562 -24.56005859375Q498.159912109375 -24.56005859375 374.9801025390625 28.429901123046875Q251.80029296875 81.41986083984375 182.46038818359375 179.68966674804688Q113.1204833984375 277.95947265625 105.5604248046875 414.1190185546875H334.57904052734375Q341.85906982421875 332.9989013671875 387.5292053222656 279.8488464355469Q433.1993408203125 226.69879150390625 505.91949462890625 200.64877319335938Q578.6396484375 174.5987548828125 664.0197143554688 174.5987548828125Q758.5399780273438 174.5987548828125 832.4702453613281 204.53887939453125Q906.4005126953125 234.47900390625 948.9906921386719 288.8092346191406Q991.5808715820312 343.13946533203125 991.5808715820312 414.57977294921875Q991.5808715820312 479.74005126953125 954.500732421875 521.2301940917969Q917.4205932617188 562.7203369140625 853.6604614257812 590.2803955078125Q789.9003295898438 617.8404541015625 709.3603515625 638.9404907226562L534.7601318359375 686.5206298828125Q351.70025634765625 735.9006958007812 249.27035522460938 832.0706481933594Q146.8404541015625 928.2406005859375 146.8404541015625 1081.1004028320312Q146.8404541015625 1209.9802856445312 216.46038818359375 1306.6401977539062Q286.080322265625 1403.3001098632812 405.5901794433594 1456.6500549316406Q525.1000366210938 1510 675.039794921875 1510Q828.1595458984375 1510 944.4894104003906 1456.4700622558594Q1060.8192749023438 1402.9401245117188 1127.3992309570312 1309.8402709960938Q1193.9791870117188 1216.7404174804688 1197.439208984375 1097.8006591796875H975.0806884765625Q963.5206298828125 1200.3209228515625 880.1703186035156 1256.4010620117188Q796.8200073242188 1312.481201171875 670.1197509765625 1312.481201171875Q580.239501953125 1312.481201171875 513.5892639160156 1284.0410766601562Q446.93902587890625 1255.6009521484375 410.7188720703125 1206.2307434082031Q374.49871826171875 1156.8605346679688 374.49871826171875 1093.520263671875Q374.49871826171875 1023.2599487304688 417.95892333984375 979.539794921875Q461.41912841796875 935.8196411132812 523.9592895507812 910.57958984375Q586.4994506835938 885.3395385742188 643.3793334960938 870.3395385742188L787.51953125 832.0394287109375Q858.8590698242188 814.239501953125 934.2389526367188 783.5396118164062Q1009.6188354492188 752.8397216796875 1073.9089050292969 704.3598022460938Q1138.198974609375 655.8798828125 1177.819091796875 584.2898864746094Q1217.439208984375 512.6998901367188 1217.439208984375 412.1197509765625Q1217.439208984375 285.61993408203125 1152.3192749023438 186.80996704101562Q1087.1993408203125 88 963.679443359375 31.719970703125Q840.1595458984375 -24.56005859375 665.0996704101562 -24.56005859375Z"/>
    <path transform="translate(214.20,88.0) scale(0.00879,-0.00879)" d="M626.4388427734375 1118V939.1610107421875H20V1118ZM183.3201904296875 1384H403.278564453125V302.41949462890625Q403.278564453125 234.61920166015625 431.5286560058594 203.1790771484375Q459.77874755859375 171.73895263671875 525.198974609375 171.73895263671875Q542.3789672851562 171.73895263671875 570.3189086914062 175.82894897460938Q598.2588500976562 179.9189453125 618.2789306640625 183.9189453125L657.2588500976562 7.61993408203125Q621.879150390625 -4 581.7893371582031 -9.269989013671875Q541.6995239257812 -14.53997802734375 503.2796630859375 -14.53997802734375Q350.53997802734375 -14.53997802734375 266.9300842285156 63.669952392578125Q183.3201904296875 141.8798828125 183.3201904296875 284.2796630859375Z"/>
    <path transform="translate(230.50,88.0) scale(0.00879,-0.00879)" d="M147.92041015625 0V1118H360.798828125V938.4403076171875H372.798828125Q403.61883544921875 1029.56005859375 480.7789306640625 1081.6000366210938Q557.9390258789062 1133.6400146484375 655.9591064453125 1133.6400146484375Q677.0390625 1133.6400146484375 704.2690734863281 1132.1000366210938Q731.4990844726562 1130.56005859375 748.9390258789062 1128.3001098632812V918.3212890625Q736.9791870117188 921.9412231445312 702.9092712402344 926.0312194824219Q668.83935546875 930.1212158203125 633.7393188476562 930.1212158203125Q557.5191650390625 930.1212158203125 496.9890441894531 897.8811645507812Q436.45892333984375 865.64111328125 402.1688537597656 809.1210327148438Q367.8787841796875 752.6009521484375 367.8787841796875 678.7608642578125V0Z"/>
    <path transform="translate(247.64,88.0) scale(0.00879,-0.00879)" d="M460.74041748046875 -24.56005859375Q354.5604248046875 -24.56005859375 268.7803955078125 14.629974365234375Q183.0003662109375 53.82000732421875 132.90032958984375 129.9200439453125Q82.80029296875 206.02008056640625 82.80029296875 316.2000732421875Q82.80029296875 411.4801025390625 119.54034423828125 472.38006591796875Q156.2803955078125 533.280029296875 218.43045043945312 569.0399780273438Q280.58050537109375 604.7999267578125 357.1305236816406 622.7898864746094Q433.6805419921875 640.7798461914062 513.3004760742188 650.0598754882812Q612.2205200195312 661.9799194335938 674.0505676269531 669.5198974609375Q735.880615234375 677.0598754882812 765.4806518554688 694.5098571777344Q795.0806884765625 711.9598388671875 795.0806884765625 751.3399047851562V756.9799194335938Q795.0806884765625 819.6002197265625 770.9706115722656 862.9704284667969Q746.8605346679688 906.3406372070312 699.1803588867188 929.5507507324219Q651.5001831054688 952.7608642578125 580.5198974609375 952.7608642578125Q508.07958984375 952.7608642578125 455.7593994140625 930.28076171875Q403.439208984375 907.8006591796875 370.63909912109375 873.0905456542969Q337.8389892578125 838.3804321289062 321.81890869140625 800.2803955078125L114.80029296875 853.5005493164062Q152.94049072265625 954.0606079101562 223.9605712890625 1015.0704650878906Q294.98065185546875 1076.080322265625 386.8504943847656 1104.0401611328125Q478.7203369140625 1132 577.4998168945312 1132Q644.83935546875 1132 720.8391723632812 1115.8901062011719Q796.8389892578125 1099.7802124023438 863.698974609375 1057.9802856445312Q930.5589599609375 1016.1803588867188 972.7990112304688 939.8402709960938Q1015.0390625 863.5001831054688 1015.0390625 742.2197875976562V0H802.2205200195312V153.0799560546875H790.9404907226562Q769.2406005859375 109.7601318359375 726.2506408691406 68.80010986328125Q683.2606811523438 27.840087890625 617.5206298828125 1.6400146484375Q551.7805786132812 -24.56005859375 460.74041748046875 -24.56005859375ZM509.5596923828125 151.53924560546875Q599.840087890625 151.53924560546875 663.7102966308594 186.93939208984375Q727.5805053710938 222.33953857421875 761.6905822753906 279.979736328125Q795.8006591796875 337.61993408203125 795.8006591796875 402.56005859375V546.2205200195312Q783.9006958007812 534.48046875 750.320556640625 524.7904357910156Q716.7404174804688 515.1004028320312 674.1002197265625 507.640380859375Q631.4600219726562 500.18035888671875 591.099853515625 494.9503479003906Q550.7396850585938 489.7203369140625 525.0996704101562 486.54034423828125Q463.33953857421875 478.7203369140625 411.6993408203125 459.76031494140625Q360.05914306640625 440.80029296875 329.65899658203125 405.8201904296875Q299.25885009765625 370.840087890625 299.25885009765625 313.13983154296875Q299.25885009765625 259.9996337890625 326.5589599609375 224.14950561523438Q353.85906982421875 188.29937744140625 401.17926025390625 169.9193115234375Q448.49945068359375 151.53924560546875 509.5596923828125 151.53924560546875Z"/>
    <path transform="translate(268.03,88.0) scale(0.00879,-0.00879)" d="M626.4388427734375 1118V939.1610107421875H20V1118ZM183.3201904296875 1384H403.278564453125V302.41949462890625Q403.278564453125 234.61920166015625 431.5286560058594 203.1790771484375Q459.77874755859375 171.73895263671875 525.198974609375 171.73895263671875Q542.3789672851562 171.73895263671875 570.3189086914062 175.82894897460938Q598.2588500976562 179.9189453125 618.2789306640625 183.9189453125L657.2588500976562 7.61993408203125Q621.879150390625 -4 581.7893371582031 -9.269989013671875Q541.6995239257812 -14.53997802734375 503.2796630859375 -14.53997802734375Q350.53997802734375 -14.53997802734375 266.9300842285156 63.669952392578125Q183.3201904296875 141.8798828125 183.3201904296875 284.2796630859375Z"/>
    <path transform="translate(284.33,88.0) scale(0.00879,-0.00879)" d="M629.7999267578125 -23.280029296875Q464.74005126953125 -23.280029296875 345.08013916015625 48.089996337890625Q225.42022705078125 119.46002197265625 160.93026733398438 248.46002197265625Q96.4403076171875 377.46002197265625 96.4403076171875 551.0799560546875Q96.4403076171875 723.2599487304688 159.79025268554688 853.9899597167969Q223.14019775390625 984.719970703125 339.0700988769531 1058.3599853515625Q455 1132 610.7798461914062 1132Q706.6195678710938 1132 795.9994506835938 1100.7000732421875Q885.3793334960938 1069.400146484375 956.3293151855469 1002.2802124023438Q1027.279296875 935.1602783203125 1068.7393188476562 828.3402709960938Q1110.1993408203125 721.520263671875 1110.1993408203125 570.3001098632812V492.240234375H218.80029296875V656.479736328125H996.8200073242188L894.1007690429688 602.2796630859375Q894.1007690429688 704.719970703125 862.2106628417969 783.2002563476562Q830.320556640625 861.6805419921875 767.5403442382812 905.8607177734375Q704.7601318359375 950.0408935546875 611.4998168945312 950.0408935546875Q518.239501953125 950.0408935546875 452.17926025390625 905.0407104492188Q386.1190185546875 860.04052734375 351.35888671875 786.4802856445312Q316.5987548828125 712.9200439453125 316.5987548828125 626.0598754882812V514.4403076171875Q316.5987548828125 399.43994140625 356.0888977050781 319.7796630859375Q395.57904052734375 240.119384765625 466.8692932128906 199.39923095703125Q538.1595458984375 158.6790771484375 632.0598754882812 158.6790771484375Q693.56005859375 158.6790771484375 743.8702087402344 176.32913208007812Q794.1803588867188 193.97918701171875 830.48046875 229.4193115234375Q866.7805786132812 264.85943603515625 886.16064453125 317.17962646484375L1092.559326171875 268.45965576171875Q1066.1993408203125 181.57977294921875 1002.5794067382812 115.86984252929688Q938.95947265625 50.159912109375 844.3995971679688 13.43994140625Q749.8397216796875 -23.280029296875 629.7999267578125 -23.280029296875Z"/>
    <path transform="translate(305.08,88.0) scale(0.00879,-0.00879)" d="M615.4998168945312 -442Q486.280029296875 -442 391.3702087402344 -409.24005126953125Q296.46038818359375 -376.4801025390625 234.75045776367188 -321.1502380371094Q173.04052734375 -265.82037353515625 141.46038818359375 -198.5206298828125L324.7188720703125 -112.080322265625Q345.47900390625 -143.7203369140625 378.9090881347656 -179.57046508789062Q412.33917236328125 -215.42059326171875 468.9693298339844 -240.04071044921875Q525.5994873046875 -264.66082763671875 615.1398315429688 -264.66082763671875Q742.6600952148438 -264.66082763671875 822.2303771972656 -204.440673828125Q901.8006591796875 -144.22052001953125 901.8006591796875 -15.22015380859375V202.66009521484375H882.6407470703125Q863.28076171875 166.34027099609375 827.6108093261719 123.06024169921875Q791.9408569335938 79.78021240234375 728.4308166503906 48.530120849609375Q664.9207763671875 17.280029296875 562.6805419921875 17.280029296875Q431.38043212890625 17.280029296875 325.640380859375 79.340087890625Q219.90032958984375 141.400146484375 158.17031860351562 263.0401611328125Q96.4403076171875 384.68017578125 96.4403076171875 562.9200439453125Q96.4403076171875 741.31982421875 157.89028930664062 868.6398315429688Q219.34027099609375 995.9598388671875 325.4903259277344 1063.9799194335938Q431.640380859375 1132 565.6005859375 1132Q669.1007690429688 1132 733.3307800292969 1097.7599487304688Q797.560791015625 1063.5198974609375 834.0907287597656 1017.159912109375Q870.6206665039062 970.7999267578125 890.16064453125 935.9401245117188H905.5407104492188V1118H1120.6790771484375V-16.22052001953125Q1120.6790771484375 -162.5604248046875 1054.1491394042969 -257.0303039550781Q987.6192016601562 -351.50018310546875 873.2493591308594 -396.7500915527344Q758.8795166015625 -442 615.4998168945312 -442ZM613.919677734375 199.9591064453125Q707.6400146484375 199.9591064453125 772.1502380371094 243.5792236328125Q836.6604614257812 287.1993408203125 870.0505676269531 369.3895568847656Q903.440673828125 451.57977294921875 903.440673828125 566.2000732421875Q903.440673828125 678.7203369140625 870.4605712890625 763.6405639648438Q837.48046875 848.560791015625 772.9702453613281 896.5509338378906Q708.4600219726562 944.5410766601562 613.919677734375 944.5410766601562Q517.0993041992188 944.5410766601562 451.85906982421875 894.0909118652344Q386.61883544921875 843.6407470703125 353.8187255859375 758.3105163574219Q321.01861572265625 672.9802856445312 321.01861572265625 566.2000732421875Q321.01861572265625 457.13983154296875 354.2287292480469 374.53961181640625Q387.4388427734375 291.93939208984375 452.6790771484375 245.94924926757812Q517.9193115234375 199.9591064453125 613.919677734375 199.9591064453125Z"/>
    <path transform="translate(326.41,88.0) scale(0.00879,-0.00879)" d="M133.34027099609375 -401.94012451171875 186.89996337890625 -222.54107666015625 211.8397216796875 -229.1610107421875Q268.81964111328125 -243.70098876953125 314.359619140625 -237.02099609375Q359.89959716796875 -230.34100341796875 393.37969970703125 -194.680908203125Q426.85980224609375 -159.02081298828125 446.840087890625 -87.1204833984375L471.10040283203125 -5.10003662109375L46.4403076171875 1118H283.93865966796875L505.1993408203125 482.53887939453125Q542.119384765625 376.5589599609375 566.5894470214844 271.9490661621094Q591.0595092773438 167.33917236328125 619.51953125 63.41949462890625H552.2595825195312Q580.7196044921875 167.33917236328125 607.3096008300781 272.5390625Q633.8995971679688 377.73895263671875 670.5396118164062 482.53887939453125L896.1401977539062 1118H1131.7385864257812L646.1383666992188 -155.30047607421875Q612.1383666992188 -244.66046142578125 562.7484436035156 -305.04034423828125Q513.3585205078125 -365.42022705078125 445.0487365722656 -395.7101135253906Q376.73895263671875 -426 286.57940673828125 -426Q234.799560546875 -426 194.039794921875 -418.46002197265625Q153.280029296875 -410.9200439453125 133.34027099609375 -401.94012451171875Z"/>
    <path transform="translate(349.48,88.0) scale(0.00879,-0.00879)" d=""/>
    <path transform="translate(367.00,88.0) scale(0.00879,-0.00879)" d="M147.92041015625 0V1118H367.8787841796875V0ZM258.53961181640625 1288.5805053710938Q201.9598388671875 1288.5805053710938 161.17999267578125 1327.009951619707Q120.400146484375 1365.4393978683202 120.400146484375 1419.2406226163785Q120.400146484375 1474.1398315429688 161.17999267578125 1512.0596923828125Q201.9598388671875 1549.9795532226562 258.53961181640625 1549.9795532226562Q315.8879656110491 1549.9795532226562 356.6935250418527 1512.0789773123606Q397.49908447265625 1474.1784014020648 397.49908447265625 1419.2500305175781Q397.49908447265625 1365.4202270507812 356.6935250418527 1327.0003662109375Q315.8879656110491 1288.5805053710938 258.53961181640625 1288.5805053710938Z"/>
    <path transform="translate(381.71,88.0) scale(0.00879,-0.00879)" d="M367.8787841796875 662.4403076171875V0H147.92041015625V1118H357.638916015625L359.89886474609375 844.3001098632812H337.23876953125Q385.89886474609375 994.2603149414062 478.7789306640625 1063.1301574707031Q571.6589965820312 1132 703.518798828125 1132Q817.5987548828125 1132 903.0487365722656 1084.1500549316406Q988.4987182617188 1036.3001098632812 1036.0887145996094 942.5301208496094Q1083.6787109375 848.7601318359375 1083.6787109375 710.3599853515625V0H863.7203369140625V682.9404907226562Q863.7203369140625 803.6608276367188 800.8101501464844 872.0710144042969Q737.8999633789062 940.481201171875 628.2796630859375 940.481201171875Q553.8594360351562 940.481201171875 494.8092346191406 907.9111022949219Q435.759033203125 875.3410034179688 401.81890869140625 813.2908020019531Q367.8787841796875 751.2406005859375 367.8787841796875 662.4403076171875Z"/>
    <path transform="translate(405.25,88.0) scale(0.00879,-0.00879)" d=""/>
    <path transform="translate(422.77,88.0) scale(0.00879,-0.00879)" d="M50.9200439453125 0 581.48046875 1490H861.238037109375L1400.7783813476562 0H1154.3402709960938L864.0792236328125 828.9222412109375Q830.2194213867188 930.00146484375 789.8294982910156 1066.90087890625Q749.4395751953125 1203.80029296875 696.4194946289062 1395.6002197265625H742.4990844726562Q690.6589965820312 1202.1602783203125 650.5290222167969 1063.620849609375Q610.3990478515625 925.0814208984375 579.3592529296875 828.9222412109375L297.918212890625 0ZM338.3994140625 392.6009521484375V583.0799560546875H1113.2990112304688V392.6009521484375Z"/>
    <path transform="translate(445.71,88.0) scale(0.00879,-0.00879)" d="M617.8598022460938 -23.280029296875Q460.46002197265625 -23.280029296875 343.2601318359375 48.809967041015625Q226.06024169921875 120.89996337890625 161.25027465820312 250.80996704101562Q96.4403076171875 380.719970703125 96.4403076171875 552.719970703125Q96.4403076171875 727.1799926757812 161.25027465820312 857.5Q226.06024169921875 987.8200073242188 343.2601318359375 1059.9100036621094Q460.46002197265625 1132 617.8598022460938 1132Q705.1595458984375 1132 781.119384765625 1109.3800659179688Q857.0792236328125 1086.7601318359375 918.379150390625 1044.3802490234375Q979.6790771484375 1002.0003662109375 1022.319091796875 940.7205200195312Q1064.9591064453125 879.440673828125 1085.6192016601562 802.120849609375L877.3406372070312 752.0408935546875Q866.2406005859375 795.2208862304688 843.3105163574219 830.7709045410156Q820.3804321289062 866.3209228515625 787.6703186035156 892.1909484863281Q754.960205078125 918.0609741210938 712.4700622558594 932.02099609375Q669.9799194335938 945.9810180664062 618.9397583007812 945.9810180664062Q517.559326171875 945.9810180664062 451.49908447265625 892.6108093261719Q385.4388427734375 839.2406005859375 352.8687438964844 750.3603515625Q320.29864501953125 661.4801025390625 320.29864501953125 553.0799560546875Q320.29864501953125 446.49981689453125 352.8687438964844 357.8495788574219Q385.4388427734375 269.1993408203125 451.49908447265625 215.96914672851562Q517.559326171875 162.73895263671875 618.9397583007812 162.73895263671875Q670.7999267578125 162.73895263671875 714.1100769042969 177.198974609375Q757.4202270507812 191.65899658203125 791.0403442382812 218.43902587890625Q824.6604614257812 245.21905517578125 847.5905456542969 282.6790771484375Q870.5206298828125 320.13909912109375 881.440673828125 365.13909912109375L1088.8992309570312 315.2391357421875Q1069.0591430664062 235.73931884765625 1026.0091247558594 173.45947265625Q982.9591064453125 111.17962646484375 921.3391723632812 66.979736328125Q859.71923828125 22.77984619140625 782.8493957519531 -0.250091552734375Q705.9795532226562 -23.280029296875 617.8598022460938 -23.280029296875Z"/>
    <path transform="translate(466.27,88.0) scale(0.00879,-0.00879)" d="M626.4388427734375 1118V939.1610107421875H20V1118ZM183.3201904296875 1384H403.278564453125V302.41949462890625Q403.278564453125 234.61920166015625 431.5286560058594 203.1790771484375Q459.77874755859375 171.73895263671875 525.198974609375 171.73895263671875Q542.3789672851562 171.73895263671875 570.3189086914062 175.82894897460938Q598.2588500976562 179.9189453125 618.2789306640625 183.9189453125L657.2588500976562 7.61993408203125Q621.879150390625 -4 581.7893371582031 -9.269989013671875Q541.6995239257812 -14.53997802734375 503.2796630859375 -14.53997802734375Q350.53997802734375 -14.53997802734375 266.9300842285156 63.669952392578125Q183.3201904296875 141.8798828125 183.3201904296875 284.2796630859375Z"/>
    <path transform="translate(482.57,88.0) scale(0.00879,-0.00879)" d="M147.92041015625 0V1118H367.8787841796875V0ZM258.53961181640625 1288.5805053710938Q201.9598388671875 1288.5805053710938 161.17999267578125 1327.009951619707Q120.400146484375 1365.4393978683202 120.400146484375 1419.2406226163785Q120.400146484375 1474.1398315429688 161.17999267578125 1512.0596923828125Q201.9598388671875 1549.9795532226562 258.53961181640625 1549.9795532226562Q315.8879656110491 1549.9795532226562 356.6935250418527 1512.0789773123606Q397.49908447265625 1474.1784014020648 397.49908447265625 1419.2500305175781Q397.49908447265625 1365.4202270507812 356.6935250418527 1327.0003662109375Q315.8879656110491 1288.5805053710938 258.53961181640625 1288.5805053710938Z"/>
    <path transform="translate(497.28,88.0) scale(0.00879,-0.00879)" d="M618.039794921875 -23.280029296875Q460.6400146484375 -23.280029296875 343.3501281738281 48.809967041015625Q226.06024169921875 120.89996337890625 161.25027465820312 250.80996704101562Q96.4403076171875 380.719970703125 96.4403076171875 552.719970703125Q96.4403076171875 727.1799926757812 161.25027465820312 857.5Q226.06024169921875 987.8200073242188 343.3501281738281 1059.9100036621094Q460.6400146484375 1132 618.039794921875 1132Q776.2595825195312 1132 893.7794799804688 1059.9100036621094Q1011.2993774414062 987.8200073242188 1076.1093444824219 857.5Q1140.9193115234375 727.1799926757812 1140.9193115234375 552.719970703125Q1140.9193115234375 380.719970703125 1076.1093444824219 250.80996704101562Q1011.2993774414062 120.89996337890625 893.7794799804688 48.809967041015625Q776.2595825195312 -23.280029296875 618.039794921875 -23.280029296875ZM618.039794921875 162.73895263671875Q720.0602416992188 162.73895263671875 786.6705017089844 216.2391357421875Q853.28076171875 269.73931884765625 885.5808715820312 358.47955322265625Q917.8809814453125 447.21978759765625 917.8809814453125 553.0799560546875Q917.8809814453125 659.9401245117188 885.5808715820312 749.2303771972656Q853.28076171875 838.5206298828125 786.6705017089844 892.2508239746094Q720.0602416992188 945.9810180664062 618.039794921875 945.9810180664062Q516.6593627929688 945.9810180664062 450.77911376953125 892.2508239746094Q384.89886474609375 838.5206298828125 352.5987548828125 749.640380859375Q320.29864501953125 660.7601318359375 320.29864501953125 553.0799560546875Q320.29864501953125 447.21978759765625 352.5987548828125 358.47955322265625Q384.89886474609375 269.73931884765625 450.77911376953125 216.2391357421875Q516.6593627929688 162.73895263671875 618.039794921875 162.73895263671875Z"/>
    <path transform="translate(518.33,88.0) scale(0.00879,-0.00879)" d="M367.8787841796875 662.4403076171875V0H147.92041015625V1118H357.638916015625L359.89886474609375 844.3001098632812H337.23876953125Q385.89886474609375 994.2603149414062 478.7789306640625 1063.1301574707031Q571.6589965820312 1132 703.518798828125 1132Q817.5987548828125 1132 903.0487365722656 1084.1500549316406Q988.4987182617188 1036.3001098632812 1036.0887145996094 942.5301208496094Q1083.6787109375 848.7601318359375 1083.6787109375 710.3599853515625V0H863.7203369140625V682.9404907226562Q863.7203369140625 803.6608276367188 800.8101501464844 872.0710144042969Q737.8999633789062 940.481201171875 628.2796630859375 940.481201171875Q553.8594360351562 940.481201171875 494.8092346191406 907.9111022949219Q435.759033203125 875.3410034179688 401.81890869140625 813.2908020019531Q367.8787841796875 751.2406005859375 367.8787841796875 662.4403076171875Z"/>
    <path transform="translate(541.87,88.0) scale(0.00879,-0.00879)" d=""/>
    <path transform="translate(559.39,88.0) scale(0.00879,-0.00879)" d="M164.880615234375 0V1490H698.6396484375Q871.19970703125 1490 985.859619140625 1426.1400146484375Q1100.51953125 1362.280029296875 1157.7194213867188 1253.1201171875Q1214.9193115234375 1143.960205078125 1214.9193115234375 1006.2803955078125Q1214.9193115234375 868.4205932617188 1157.4494323730469 758.8906555175781Q1099.9795532226562 649.3607177734375 985.0996704101562 585.4507141113281Q870.2197875976562 521.5407104492188 696.9397583007812 521.5407104492188H331.7999267578125V714.9996337890625H674.80029296875Q784.5206298828125 714.9996337890625 852.7407836914062 752.7997436523438Q920.9609375 790.599853515625 952.4709777832031 856.6900329589844Q983.9810180664062 922.7802124023438 983.9810180664062 1006.2803955078125Q983.9810180664062 1090.1405639648438 952.4709777832031 1155.3207397460938Q920.9609375 1220.5009155273438 852.3307800292969 1257.6210327148438Q783.7006225585938 1294.7411499023438 673.1602783203125 1294.7411499023438H393.3990478515625V0Z"/>
    <path transform="translate(581.11,88.0) scale(0.00879,-0.00879)" d="M147.92041015625 0V1118H360.798828125V938.4403076171875H372.798828125Q403.61883544921875 1029.56005859375 480.7789306640625 1081.6000366210938Q557.9390258789062 1133.6400146484375 655.9591064453125 1133.6400146484375Q677.0390625 1133.6400146484375 704.2690734863281 1132.1000366210938Q731.4990844726562 1130.56005859375 748.9390258789062 1128.3001098632812V918.3212890625Q736.9791870117188 921.9412231445312 702.9092712402344 926.0312194824219Q668.83935546875 930.1212158203125 633.7393188476562 930.1212158203125Q557.5191650390625 930.1212158203125 496.9890441894531 897.8811645507812Q436.45892333984375 865.64111328125 402.1688537597656 809.1210327148438Q367.8787841796875 752.6009521484375 367.8787841796875 678.7608642578125V0Z"/>
    <path transform="translate(598.25,88.0) scale(0.00879,-0.00879)" d="M618.039794921875 -23.280029296875Q460.6400146484375 -23.280029296875 343.3501281738281 48.809967041015625Q226.06024169921875 120.89996337890625 161.25027465820312 250.80996704101562Q96.4403076171875 380.719970703125 96.4403076171875 552.719970703125Q96.4403076171875 727.1799926757812 161.25027465820312 857.5Q226.06024169921875 987.8200073242188 343.3501281738281 1059.9100036621094Q460.6400146484375 1132 618.039794921875 1132Q776.2595825195312 1132 893.7794799804688 1059.9100036621094Q1011.2993774414062 987.8200073242188 1076.1093444824219 857.5Q1140.9193115234375 727.1799926757812 1140.9193115234375 552.719970703125Q1140.9193115234375 380.719970703125 1076.1093444824219 250.80996704101562Q1011.2993774414062 120.89996337890625 893.7794799804688 48.809967041015625Q776.2595825195312 -23.280029296875 618.039794921875 -23.280029296875ZM618.039794921875 162.73895263671875Q720.0602416992188 162.73895263671875 786.6705017089844 216.2391357421875Q853.28076171875 269.73931884765625 885.5808715820312 358.47955322265625Q917.8809814453125 447.21978759765625 917.8809814453125 553.0799560546875Q917.8809814453125 659.9401245117188 885.5808715820312 749.2303771972656Q853.28076171875 838.5206298828125 786.6705017089844 892.2508239746094Q720.0602416992188 945.9810180664062 618.039794921875 945.9810180664062Q516.6593627929688 945.9810180664062 450.77911376953125 892.2508239746094Q384.89886474609375 838.5206298828125 352.5987548828125 749.640380859375Q320.29864501953125 660.7601318359375 320.29864501953125 553.0799560546875Q320.29864501953125 447.21978759765625 352.5987548828125 358.47955322265625Q384.89886474609375 269.73931884765625 450.77911376953125 216.2391357421875Q516.6593627929688 162.73895263671875 618.039794921875 162.73895263671875Z"/>
    <path transform="translate(619.29,88.0) scale(0.00879,-0.00879)" d="M147.10040283203125 1118H367.8787841796875V-72.4403076171875Q368.69879150390625 -185.82000732421875 327.2889709472656 -262.9899597167969Q285.879150390625 -340.159912109375 206.0394287109375 -379.0799560546875Q126.19970703125 -418 10.3599853515625 -418H-33.919677734375V-228.6009521484375H1.42022705078125Q78.520263671875 -228.6009521484375 112.81033325195312 -188.15078735351562Q147.10040283203125 -147.70062255859375 147.10040283203125 -71.0003662109375ZM257.89959716796875 1288.5805053710938Q201.31982421875 1288.5805053710938 160.53997802734375 1327.009951619707Q119.7601318359375 1365.4393978683202 119.7601318359375 1419.2406226163785Q119.7601318359375 1474.1398315429688 160.53997802734375 1512.0596923828125Q201.31982421875 1549.9795532226562 257.89959716796875 1549.9795532226562Q315.2479509626116 1549.9795532226562 356.0535103934152 1512.0789773123606Q396.85906982421875 1474.1784014020648 396.85906982421875 1419.2500305175781Q396.85906982421875 1365.4202270507812 356.0535103934152 1327.0003662109375Q315.2479509626116 1288.5805053710938 257.89959716796875 1288.5805053710938Z"/>
    <path transform="translate(634.00,88.0) scale(0.00879,-0.00879)" d="M629.7999267578125 -23.280029296875Q464.74005126953125 -23.280029296875 345.08013916015625 48.089996337890625Q225.42022705078125 119.46002197265625 160.93026733398438 248.46002197265625Q96.4403076171875 377.46002197265625 96.4403076171875 551.0799560546875Q96.4403076171875 723.2599487304688 159.79025268554688 853.9899597167969Q223.14019775390625 984.719970703125 339.0700988769531 1058.3599853515625Q455 1132 610.7798461914062 1132Q706.6195678710938 1132 795.9994506835938 1100.7000732421875Q885.3793334960938 1069.400146484375 956.3293151855469 1002.2802124023438Q1027.279296875 935.1602783203125 1068.7393188476562 828.3402709960938Q1110.1993408203125 721.520263671875 1110.1993408203125 570.3001098632812V492.240234375H218.80029296875V656.479736328125H996.8200073242188L894.1007690429688 602.2796630859375Q894.1007690429688 704.719970703125 862.2106628417969 783.2002563476562Q830.320556640625 861.6805419921875 767.5403442382812 905.8607177734375Q704.7601318359375 950.0408935546875 611.4998168945312 950.0408935546875Q518.239501953125 950.0408935546875 452.17926025390625 905.0407104492188Q386.1190185546875 860.04052734375 351.35888671875 786.4802856445312Q316.5987548828125 712.9200439453125 316.5987548828125 626.0598754882812V514.4403076171875Q316.5987548828125 399.43994140625 356.0888977050781 319.7796630859375Q395.57904052734375 240.119384765625 466.8692932128906 199.39923095703125Q538.1595458984375 158.6790771484375 632.0598754882812 158.6790771484375Q693.56005859375 158.6790771484375 743.8702087402344 176.32913208007812Q794.1803588867188 193.97918701171875 830.48046875 229.4193115234375Q866.7805786132812 264.85943603515625 886.16064453125 317.17962646484375L1092.559326171875 268.45965576171875Q1066.1993408203125 181.57977294921875 1002.5794067382812 115.86984252929688Q938.95947265625 50.159912109375 844.3995971679688 13.43994140625Q749.8397216796875 -23.280029296875 629.7999267578125 -23.280029296875Z"/>
    <path transform="translate(654.75,88.0) scale(0.00879,-0.00879)" d="M617.8598022460938 -23.280029296875Q460.46002197265625 -23.280029296875 343.2601318359375 48.809967041015625Q226.06024169921875 120.89996337890625 161.25027465820312 250.80996704101562Q96.4403076171875 380.719970703125 96.4403076171875 552.719970703125Q96.4403076171875 727.1799926757812 161.25027465820312 857.5Q226.06024169921875 987.8200073242188 343.2601318359375 1059.9100036621094Q460.46002197265625 1132 617.8598022460938 1132Q705.1595458984375 1132 781.119384765625 1109.3800659179688Q857.0792236328125 1086.7601318359375 918.379150390625 1044.3802490234375Q979.6790771484375 1002.0003662109375 1022.319091796875 940.7205200195312Q1064.9591064453125 879.440673828125 1085.6192016601562 802.120849609375L877.3406372070312 752.0408935546875Q866.2406005859375 795.2208862304688 843.3105163574219 830.7709045410156Q820.3804321289062 866.3209228515625 787.6703186035156 892.1909484863281Q754.960205078125 918.0609741210938 712.4700622558594 932.02099609375Q669.9799194335938 945.9810180664062 618.9397583007812 945.9810180664062Q517.559326171875 945.9810180664062 451.49908447265625 892.6108093261719Q385.4388427734375 839.2406005859375 352.8687438964844 750.3603515625Q320.29864501953125 661.4801025390625 320.29864501953125 553.0799560546875Q320.29864501953125 446.49981689453125 352.8687438964844 357.8495788574219Q385.4388427734375 269.1993408203125 451.49908447265625 215.96914672851562Q517.559326171875 162.73895263671875 618.9397583007812 162.73895263671875Q670.7999267578125 162.73895263671875 714.1100769042969 177.198974609375Q757.4202270507812 191.65899658203125 791.0403442382812 218.43902587890625Q824.6604614257812 245.21905517578125 847.5905456542969 282.6790771484375Q870.5206298828125 320.13909912109375 881.440673828125 365.13909912109375L1088.8992309570312 315.2391357421875Q1069.0591430664062 235.73931884765625 1026.0091247558594 173.45947265625Q982.9591064453125 111.17962646484375 921.3391723632812 66.979736328125Q859.71923828125 22.77984619140625 782.8493957519531 -0.250091552734375Q705.9795532226562 -23.280029296875 617.8598022460938 -23.280029296875Z"/>
    <path transform="translate(675.31,88.0) scale(0.00879,-0.00879)" d="M626.4388427734375 1118V939.1610107421875H20V1118ZM183.3201904296875 1384H403.278564453125V302.41949462890625Q403.278564453125 234.61920166015625 431.5286560058594 203.1790771484375Q459.77874755859375 171.73895263671875 525.198974609375 171.73895263671875Q542.3789672851562 171.73895263671875 570.3189086914062 175.82894897460938Q598.2588500976562 179.9189453125 618.2789306640625 183.9189453125L657.2588500976562 7.61993408203125Q621.879150390625 -4 581.7893371582031 -9.269989013671875Q541.6995239257812 -14.53997802734375 503.2796630859375 -14.53997802734375Q350.53997802734375 -14.53997802734375 266.9300842285156 63.669952392578125Q183.3201904296875 141.8798828125 183.3201904296875 284.2796630859375Z"/>
  </g>
</svg>
